<svg width="95" height="145" viewBox="0 0 95 145" fill="none" xmlns="http://www.w3.org/2000/svg">
<path d="M6.11661 77.6715L88.7739 141.973C88.9899 142.142 89.2495 142.247 89.5228 142.276C89.7961 142.305 90.0722 142.257 90.3192 142.137C90.5662 142.017 90.7741 141.83 90.9192 141.597C91.0643 141.365 91.1405 141.096 91.1392 140.822V126.705C91.1392 125.811 90.7175 124.952 90.0207 124.404L24.0123 73.0695L90.0207 21.7345C90.7358 21.1866 91.1392 20.3283 91.1392 19.4335V5.31681C91.1392 4.09325 89.7274 3.41754 88.7739 4.16629L6.11661 68.4674C5.41408 69.0132 4.84575 69.7114 4.45486 70.5089C4.06396 71.3063 3.86079 72.1821 3.86079 73.0695C3.86079 73.9569 4.06396 74.8326 4.45486 75.6301C4.84575 76.4276 5.41408 77.1257 6.11661 77.6715Z" fill="#1A1A1A"/>
<path fill-rule="evenodd" clip-rule="evenodd" d="M6.11661 77.6715C5.41408 77.1257 4.84575 76.4276 4.45486 75.6301C4.06396 74.8326 3.86079 73.9569 3.86079 73.0695C3.86079 72.1821 4.06396 71.3063 4.45486 70.5089C4.84575 69.7114 5.41408 69.0132 6.11661 68.4674L87.2784 5.32966L88.7739 4.16629C89.7274 3.41754 91.1392 4.09325 91.1392 5.31681V19.4335C91.1392 20.3283 90.7358 21.1866 90.0207 21.7345L24.0123 73.0695L90.0207 124.404C90.7175 124.952 91.1392 125.811 91.1392 126.705V140.822C91.1405 141.096 91.0643 141.365 90.9192 141.597C90.7741 141.83 90.5662 142.017 90.3192 142.137C90.0722 142.257 89.7961 142.305 89.5228 142.276C89.2495 142.247 88.9899 142.142 88.7739 141.973L6.11661 77.6715ZM86.3934 145C86.3908 144.998 86.3883 144.996 86.3857 144.994L3.74202 80.7035C2.57751 79.7983 1.63353 78.6392 0.98546 77.3171C0.337042 75.9943 -1.94739e-06 74.5416 -1.94739e-06 73.0695C-1.94739e-06 71.5974 0.337042 70.1447 0.98546 68.8219C1.63353 67.4997 2.57559 66.3421 3.74011 65.4369L86.3835 1.1467C86.3867 1.14415 86.39 1.14159 86.3933 1.13904C89.882 -1.5886 95 0.889981 95 5.31681V19.4335C95 21.4578 94.0906 23.4609 92.3881 24.7721C92.3837 24.7755 92.3792 24.779 92.3747 24.7824L30.2855 73.0695L92.4131 121.386C94.0338 122.661 95 124.629 95 126.705V140.816M91.1621 138.951L91.1504 138.942Z" fill="#1A1A1A"/>
</svg>
