<svg width="39" height="60" viewBox="0 0 39 60" fill="none" xmlns="http://www.w3.org/2000/svg">
<path d="M36.489 27.86L2.55597 1.25269C2.46731 1.18261 2.36075 1.13906 2.24853 1.12704C2.13632 1.11501 2.02301 1.13501 1.9216 1.18473C1.8202 1.23444 1.73482 1.31186 1.67527 1.4081C1.61572 1.50433 1.58442 1.61548 1.58495 1.72877V7.57014C1.58495 7.94042 1.75808 8.29559 2.04412 8.52229L29.1423 29.7644L2.04412 51.0064C1.75056 51.2331 1.58495 51.5883 1.58495 51.9586V57.7999C1.58495 58.3062 2.16456 58.5858 2.55597 58.276L36.489 31.6687C36.7774 31.4428 37.0107 31.1539 37.1712 30.8239C37.3316 30.4939 37.415 30.1316 37.415 29.7644C37.415 29.3971 37.3316 29.0348 37.1712 28.7048C37.0107 28.3748 36.7774 28.0859 36.489 27.86Z" fill="white"/>
<path fill-rule="evenodd" clip-rule="evenodd" d="M36.489 27.86C36.7774 28.0859 37.0107 28.3748 37.1712 28.7048C37.3316 29.0348 37.415 29.3971 37.415 29.7644C37.415 30.1316 37.3316 30.4939 37.1712 30.8239C37.0107 31.1539 36.7774 31.4428 36.489 31.6687L3.16991 57.7946L2.55597 58.276C2.16456 58.5858 1.58495 58.3062 1.58495 57.7999V51.9586C1.58495 51.5883 1.75056 51.2331 2.04412 51.0064L29.1423 29.7644L2.04412 8.52229C1.75808 8.29559 1.58495 7.94042 1.58495 7.57014V1.72877C1.58442 1.61548 1.61572 1.50433 1.67527 1.4081C1.73482 1.31186 1.8202 1.23444 1.9216 1.18473C2.02301 1.13501 2.13632 1.11501 2.24853 1.12704C2.36075 1.13906 2.46731 1.18261 2.55597 1.25269L36.489 27.86ZM3.53325 0C3.5343 0.000825872 3.53535 0.00165269 3.5364 0.00248065L37.4638 26.6054C37.9419 26.98 38.3294 27.4596 38.5954 28.0067C38.8616 28.5541 39 29.1552 39 29.7644C39 30.3735 38.8616 30.9746 38.5954 31.522C38.3294 32.0691 37.9427 32.5481 37.4646 32.9227L3.53731 59.5255C3.53597 59.5266 3.53463 59.5276 3.5333 59.5287C2.10105 60.6574 0 59.6317 0 57.7999V51.9586C0 51.1209 0.373313 50.2921 1.07224 49.7495C1.07408 49.7481 1.07592 49.7466 1.07776 49.7452L26.567 29.7644L1.062 9.77119C0.396654 9.24386 0 8.4292 0 7.57014V1.73135M1.57555 2.5029L1.58036 2.50668Z" fill="white"/>
</svg>
