<svg width="74" height="74" viewBox="0 0 74 74" fill="none" xmlns="http://www.w3.org/2000/svg">
<path d="M61.6663 24.6666H52.4163V19.1474C52.4163 11.0999 46.5272 3.91576 38.5105 3.14493C36.3686 2.93782 34.2071 3.18068 32.1646 3.85792C30.1221 4.53516 28.2436 5.63184 26.6498 7.07761C25.056 8.52338 23.7819 10.2863 22.9094 12.2533C22.0368 14.2204 21.585 16.3481 21.583 18.4999V24.6666H12.333V67.8333H61.6663V24.6666ZM36.9997 52.4166C33.608 52.4166 30.833 49.6416 30.833 46.2499C30.833 42.8583 33.608 40.0833 36.9997 40.0833C40.3913 40.0833 43.1663 42.8583 43.1663 46.2499C43.1663 49.6416 40.3913 52.4166 36.9997 52.4166ZM27.7497 24.6666V18.4999C27.7497 13.3816 31.8813 9.24993 36.9997 9.24993C42.118 9.24993 46.2497 13.3816 46.2497 18.4999V24.6666H27.7497Z" fill="black"/>
</svg>
