<svg width="36" height="36" viewBox="0 0 36 36" fill="none" xmlns="http://www.w3.org/2000/svg">
<path d="M18 0.155762C22.6413 0.155762 27.0925 1.99951 30.3744 5.28139C33.6563 8.56328 35.5 13.0145 35.5 17.6558C35.5 22.297 33.6563 26.7482 30.3744 30.0301C27.0925 33.312 22.6413 35.1558 18 35.1558C13.3587 35.1558 8.90752 33.312 5.62563 30.0301C2.34374 26.7482 0.5 22.297 0.5 17.6558C0.5 13.0145 2.34374 8.56328 5.62563 5.28139C8.90752 1.99951 13.3587 0.155762 18 0.155762ZM20.6248 10.9C21.9247 10.9 22.9796 9.99756 22.9796 8.66015C22.9796 7.32275 21.9222 6.42031 20.6248 6.42031C19.3249 6.42031 18.275 7.32275 18.275 8.66015C18.275 9.99756 19.3249 10.9 20.6248 10.9ZM21.0823 24.9665C21.0823 24.699 21.1748 24.0041 21.1223 23.6091L19.0674 25.9739C18.6425 26.4214 18.11 26.7314 17.86 26.6489C17.7466 26.6071 17.6518 26.5263 17.5927 26.4209C17.5336 26.3155 17.514 26.1924 17.5375 26.0739L20.9623 15.2547C21.2423 13.8823 20.4723 12.6299 18.8399 12.4699C17.1176 12.4699 14.5827 14.2173 13.0404 16.4346C13.0404 16.6996 12.9904 17.3595 13.0429 17.7545L15.0952 15.3872C15.5202 14.9447 16.0151 14.6322 16.2651 14.7172C16.3883 14.7614 16.4892 14.8522 16.5462 14.9699C16.6032 15.0877 16.6118 15.2232 16.5701 15.3472L13.1753 26.1139C12.7829 27.3738 13.5253 28.6087 15.3252 28.8887C17.975 28.8887 19.5399 27.1838 21.0848 24.9665H21.0823Z" fill="#808080"/>
</svg>
