<svg width="1127" height="715" viewBox="0 0 1127 715" fill="none" xmlns="http://www.w3.org/2000/svg">
<path d="M59.3938 272.963C33.657 242.054 38.4331 196.848 84.2261 134.521C29.1666 181.012 -35.3658 280.341 23.0735 350.427C97.6339 439.824 354.827 384.732 433.799 367.421C549.503 342.033 672.522 301.286 768.519 253.478V186.155C578.508 263.984 421.232 281.531 310.018 295.653C257.243 302.333 106.091 329.07 59.3938 272.963Z" fill="white" fill-opacity="0.9"/>
<path d="M768.519 186.155V253.478C852.621 205.206 884.416 174.596 930.844 117.124C905.109 137.367 801.722 172.555 768.519 186.155Z" fill="white" fill-opacity="0.9"/>
<path fill-rule="evenodd" clip-rule="evenodd" d="M577.588 715C485.287 646.739 386.117 548.52 305.384 435.418C595.533 395.188 819.026 299.639 961.393 219.044C964.796 217.117 968.152 215.2 971.462 213.292C955.586 255.415 935.956 296.718 913.478 336.727C826.66 491.254 697.338 626.47 577.588 715Z" fill="#FF0000" fill-opacity="0.32"/>
<path d="M961.393 219.044C964.796 217.117 968.152 215.2 971.462 213.292C955.586 255.415 935.956 296.718 913.478 336.727C1017.13 281.032 1102.77 214.844 1122.01 143.028C1146.87 50.2358 1072.19 5.99784 1018.7 0C1069.52 24.6578 1085.15 59.3437 1074.22 100.234C1064.57 136.341 1024.05 177.485 961.393 219.044Z" fill="#FF0000" fill-opacity="0.32"/>
</svg>
