<svg width="23" height="24" viewBox="0 0 23 24" fill="none" xmlns="http://www.w3.org/2000/svg">
<path d="M18.8666 8.26684H16.0666V6.59617C16.0666 4.16017 14.284 1.9855 11.8573 1.75217C11.2089 1.68948 10.5546 1.76299 9.93636 1.96799C9.31808 2.173 8.74948 2.50496 8.26703 2.9426C7.78457 3.38024 7.39891 3.91389 7.13479 4.50931C6.87066 5.10474 6.73391 5.74879 6.73329 6.40017V8.26684H3.93329V21.3335H18.8666V8.26684ZM11.4 16.6668C10.3733 16.6668 9.53329 15.8268 9.53329 14.8002C9.53329 13.7735 10.3733 12.9335 11.4 12.9335C12.4266 12.9335 13.2666 13.7735 13.2666 14.8002C13.2666 15.8268 12.4266 16.6668 11.4 16.6668ZM8.59996 8.26684V6.40017C8.59996 4.85084 9.85062 3.60017 11.4 3.60017C12.9493 3.60017 14.2 4.85084 14.2 6.40017V8.26684H8.59996Z" fill="white" fill-opacity="0.64"/>
</svg>
