<svg width="217" height="40" viewBox="0 0 217 40" fill="none" xmlns="http://www.w3.org/2000/svg">
<path fill-rule="evenodd" clip-rule="evenodd" d="M29.4933 10.5805L34.9093 13.336C36.6478 12.3349 37.9999 8.77274 36.2237 8.4707C34.4475 8.16866 32.5043 8.37776 29.4933 10.5805Z" fill="#929292"/>
<path fill-rule="evenodd" clip-rule="evenodd" d="M27.2559 5.50296L35.3512 6.86684C36.9716 4.67544 36.1713 1.68024 34.1618 1.73462C32.1514 1.78899 30.0707 2.43806 27.2559 5.50296Z" fill="#929292"/>
<path fill-rule="evenodd" clip-rule="evenodd" d="M8.94215 25.9158C8.94215 25.9158 11.6056 26.2851 15.9064 27.382C17.64 26.8882 21.4978 25.6899 25.0917 23.8796C26.0794 15.989 29.9357 7.88777 36.3324 8.47949C36.3324 8.47949 27.5144 5.42843 20.5003 5.69191C20.5003 5.69191 8.7543 7.86206 8.94264 25.9158H8.94215Z" fill="white"/>
<path fill-rule="evenodd" clip-rule="evenodd" d="M29.2066 6.58041C28.7508 6.48748 28.2847 6.398 27.8091 6.31396C23.9241 11.6647 25.334 22.2623 25.334 22.2623L25.6533 20.6666C25.2524 12.8368 28.3287 7.839 29.2066 6.58041Z" fill="#929292"/>
<path fill-rule="evenodd" clip-rule="evenodd" d="M8.10774 26.7407C8.10774 26.7407 11.6724 26.535 17.4463 26.9206C19.5625 26.2533 22.7159 25.1331 25.6167 23.6105C24.2573 14.1746 26.4462 2.53393 34.282 1.72173C34.282 1.72173 23.9676 0.294575 16.3484 2.10336C16.3484 2.10336 3.96667 7.02499 8.10774 26.7407Z" fill="white"/>
<path d="M11.4489 10.2998H22.6648M9.91553 12.578H21.5257M10.0908 15.4696H19.9485M10.3536 18.4488H16.1368" stroke="#929292" stroke-width="0.700993" stroke-linecap="round"/>
<path fill-rule="evenodd" clip-rule="evenodd" d="M7.78195 25.017C7.83485 25.3309 7.89269 25.6488 7.95448 25.9706C8.64705 25.89 9.25459 25.8 9.65896 25.7491C11.1879 25.5549 12.9962 25.2419 15.0477 24.7441C11.9908 25.0541 9.5324 25.1386 7.78195 25.017Z" fill="#929292"/>
<path fill-rule="evenodd" clip-rule="evenodd" d="M26.8006 9.48157L27.3291 10.1479C27.3291 10.1479 28.868 6.75827 31.0074 6.97775L28.5091 6.44238L26.8006 9.48157Z" fill="#929292"/>
<path d="M1.85039 25.0426C1.04857 24.0796 1.19737 22.6713 2.62403 20.7295C0.908672 22.1779 -1.1018 25.2725 0.718844 27.456C3.04174 30.2411 11.0545 28.5247 13.5148 27.9854C17.1195 27.1944 20.9521 25.925 23.9429 24.4355V21.8338C18.0232 24.2586 13.1233 25.3095 9.65846 25.7495C8.01429 25.9576 3.30522 26.7906 1.85039 25.0426Z" fill="white"/>
<path fill-rule="evenodd" clip-rule="evenodd" d="M17.9945 38.8131C15.1189 36.6865 12.0293 33.6265 9.5141 30.1029C18.7696 28.8196 25.848 25.7294 30.2654 23.1826C27.8605 29.5635 22.6912 35.3409 17.9945 38.8131Z" fill="#FF0000"/>
<path d="M26.1708 25.4762C30.2343 23.5176 33.0016 21.4014 33.4668 19.6608C33.8074 18.3869 33.3204 17.3063 31.7371 16.5381C33.4035 16.7249 35.7303 18.1032 34.9557 20.9941C34.2107 23.7752 30.2689 26.2854 26.027 28.2336L26.1708 25.4757V25.4762Z" fill="#FF0000"/>
<path d="M57.8466 19.407C58.9006 19.6035 59.767 20.1305 60.4458 20.988C61.1247 21.8455 61.4641 22.828 61.4641 23.9356C61.4641 24.9359 61.214 25.8202 60.7138 26.5884C60.2315 27.3386 59.5258 27.9282 58.5969 28.3569C57.668 28.7856 56.5694 29 55.301 29H47.2354V10.2964H54.9527C56.221 10.2964 57.3107 10.5018 58.2218 10.9127C59.1507 11.3236 59.8474 11.8952 60.3119 12.6276C60.7942 13.3601 61.0354 14.1907 61.0354 15.1197C61.0354 16.2094 60.7406 17.1204 60.1511 17.8529C59.5794 18.5853 58.8113 19.1033 57.8466 19.407ZM50.9869 18.0136H54.4167C55.3099 18.0136 55.9977 17.8171 56.48 17.4241C56.9624 17.0133 57.2035 16.4327 57.2035 15.6824C57.2035 14.9321 56.9624 14.3515 56.48 13.9407C55.9977 13.5298 55.3099 13.3243 54.4167 13.3243H50.9869V18.0136ZM54.7651 25.9453C55.6762 25.9453 56.3818 25.7309 56.882 25.3022C57.4 24.8734 57.6591 24.266 57.6591 23.48C57.6591 22.6761 57.3911 22.0509 56.8552 21.6043C56.3193 21.1398 55.5958 20.9076 54.6847 20.9076H50.9869V25.9453H54.7651ZM78.4682 14.155V29H74.69V27.1243C74.2077 27.7674 73.5735 28.2765 72.7875 28.6517C72.0193 29.0089 71.1797 29.1876 70.2687 29.1876C69.1075 29.1876 68.0803 28.9464 67.1871 28.4641C66.2939 27.9639 65.5883 27.2404 65.0702 26.2936C64.57 25.3289 64.32 24.1857 64.32 22.8637V14.155H68.0714V22.3278C68.0714 23.5068 68.3661 24.4179 68.9557 25.061C69.5452 25.6862 70.3491 25.9988 71.3673 25.9988C72.4034 25.9988 73.2162 25.6862 73.8057 25.061C74.3952 24.4179 74.69 23.5068 74.69 22.3278V14.155H78.4682ZM87.8504 29.2412C86.6356 29.2412 85.5459 29.0268 84.5813 28.5981C83.6166 28.1515 82.8485 27.553 82.2768 26.8027C81.723 26.0524 81.4194 25.2218 81.3658 24.3107H85.144C85.2155 24.8823 85.4923 25.3557 85.9747 25.7309C86.4749 26.106 87.0912 26.2936 87.8236 26.2936C88.5382 26.2936 89.0919 26.1507 89.485 25.8649C89.8958 25.579 90.1013 25.2128 90.1013 24.7662C90.1013 24.2839 89.8512 23.9266 89.351 23.6944C88.8686 23.4443 88.0916 23.1763 87.0197 22.8905C85.9122 22.6226 85.0011 22.3457 84.2865 22.0598C83.5898 21.774 82.9825 21.3363 82.4644 20.7468C81.9642 20.1573 81.7141 19.3624 81.7141 18.362C81.7141 17.5402 81.9463 16.79 82.4108 16.1111C82.8931 15.4323 83.572 14.8964 84.4473 14.5034C85.3405 14.1104 86.3855 13.9139 87.5824 13.9139C89.351 13.9139 90.7622 14.3605 91.8162 15.2537C92.8702 16.129 93.4508 17.3169 93.5579 18.8175H89.9673C89.9137 18.228 89.6636 17.7635 89.217 17.4241C88.7883 17.0669 88.2077 16.8882 87.4753 16.8882C86.7964 16.8882 86.2694 17.0133 85.8943 17.2634C85.537 17.5135 85.3584 17.8618 85.3584 18.3084C85.3584 18.8086 85.6085 19.1927 86.1087 19.4606C86.6088 19.7107 87.3859 19.9697 88.4399 20.2377C89.5117 20.5057 90.396 20.7826 91.0927 21.0684C91.7894 21.3542 92.3879 21.8008 92.888 22.4082C93.4061 22.9977 93.6741 23.7837 93.6919 24.7662C93.6919 25.6237 93.4508 26.3919 92.9684 27.0707C92.504 27.7495 91.8251 28.2854 90.9319 28.6784C90.0566 29.0536 89.0294 29.2412 87.8504 29.2412ZM98.6739 12.3865C98.0129 12.3865 97.4591 12.181 97.0125 11.7702C96.5838 11.3414 96.3694 10.8145 96.3694 10.1892C96.3694 9.56397 96.5838 9.04592 97.0125 8.63504C97.4591 8.20631 98.0129 7.99194 98.6739 7.99194C99.3349 7.99194 99.8797 8.20631 100.308 8.63504C100.755 9.04592 100.978 9.56397 100.978 10.1892C100.978 10.8145 100.755 11.3414 100.308 11.7702C99.8797 12.181 99.3349 12.3865 98.6739 12.3865ZM100.523 14.155V29H96.7714V14.155H100.523ZM112.456 13.9407C114.224 13.9407 115.653 14.5034 116.743 15.6288C117.833 16.7364 118.378 18.2905 118.378 20.2913V29H114.626V20.8004C114.626 19.6214 114.331 18.7193 113.742 18.094C113.152 17.4509 112.348 17.1294 111.33 17.1294C110.294 17.1294 109.472 17.4509 108.865 18.094C108.275 18.7193 107.981 19.6214 107.981 20.8004V29H104.229V14.155H107.981V16.0039C108.481 15.3608 109.115 14.8606 109.883 14.5034C110.669 14.1282 111.527 13.9407 112.456 13.9407ZM135.745 21.256C135.745 21.7919 135.709 22.2742 135.638 22.7029H124.785C124.875 23.7748 125.25 24.6144 125.911 25.2218C126.572 25.8291 127.385 26.1328 128.349 26.1328C129.743 26.1328 130.734 25.5344 131.324 24.3375H135.37C134.941 25.7666 134.119 26.9456 132.905 27.8746C131.69 28.7856 130.198 29.2412 128.43 29.2412C127 29.2412 125.714 28.9285 124.571 28.3033C123.446 27.6602 122.561 26.7581 121.918 25.5969C121.293 24.4357 120.98 23.0959 120.98 21.5775C120.98 20.0412 121.293 18.6925 121.918 17.5313C122.543 16.3702 123.419 15.477 124.544 14.8517C125.67 14.2265 126.965 13.9139 128.43 13.9139C129.841 13.9139 131.1 14.2175 132.208 14.8249C133.333 15.4323 134.2 16.2987 134.807 17.4241C135.432 18.5317 135.745 19.809 135.745 21.256ZM131.859 20.1841C131.842 19.2195 131.493 18.4513 130.814 17.8797C130.136 17.2902 129.305 16.9954 128.322 16.9954C127.393 16.9954 126.607 17.2812 125.964 17.8529C125.339 18.4067 124.955 19.1837 124.812 20.1841H131.859ZM144.164 29.2412C142.949 29.2412 141.859 29.0268 140.895 28.5981C139.93 28.1515 139.162 27.553 138.59 26.8027C138.037 26.0524 137.733 25.2218 137.679 24.3107H141.457C141.529 24.8823 141.806 25.3557 142.288 25.7309C142.788 26.106 143.405 26.2936 144.137 26.2936C144.852 26.2936 145.405 26.1507 145.798 25.8649C146.209 25.579 146.415 25.2128 146.415 24.7662C146.415 24.2839 146.165 23.9266 145.664 23.6944C145.182 23.4443 144.405 23.1763 143.333 22.8905C142.226 22.6226 141.315 22.3457 140.6 22.0598C139.903 21.774 139.296 21.3363 138.778 20.7468C138.278 20.1573 138.028 19.3624 138.028 18.362C138.028 17.5402 138.26 16.79 138.724 16.1111C139.207 15.4323 139.885 14.8964 140.761 14.5034C141.654 14.1104 142.699 13.9139 143.896 13.9139C145.664 13.9139 147.076 14.3605 148.13 15.2537C149.184 16.129 149.764 17.3169 149.871 18.8175H146.281C146.227 18.228 145.977 17.7635 145.53 17.4241C145.102 17.0669 144.521 16.8882 143.789 16.8882C143.11 16.8882 142.583 17.0133 142.208 17.2634C141.85 17.5135 141.672 17.8618 141.672 18.3084C141.672 18.8086 141.922 19.1927 142.422 19.4606C142.922 19.7107 143.699 19.9697 144.753 20.2377C145.825 20.5057 146.709 20.7826 147.406 21.0684C148.103 21.3542 148.701 21.8008 149.201 22.4082C149.72 22.9977 149.988 23.7837 150.005 24.7662C150.005 25.6237 149.764 26.3919 149.282 27.0707C148.817 27.7495 148.139 28.2854 147.245 28.6784C146.37 29.0536 145.343 29.2412 144.164 29.2412ZM158.766 29.2412C157.551 29.2412 156.461 29.0268 155.496 28.5981C154.532 28.1515 153.764 27.553 153.192 26.8027C152.638 26.0524 152.335 25.2218 152.281 24.3107H156.059C156.131 24.8823 156.408 25.3557 156.89 25.7309C157.39 26.106 158.006 26.2936 158.739 26.2936C159.453 26.2936 160.007 26.1507 160.4 25.8649C160.811 25.579 161.016 25.2128 161.016 24.7662C161.016 24.2839 160.766 23.9266 160.266 23.6944C159.784 23.4443 159.007 23.1763 157.935 22.8905C156.827 22.6226 155.916 22.3457 155.202 22.0598C154.505 21.774 153.898 21.3363 153.38 20.7468C152.879 20.1573 152.629 19.3624 152.629 18.362C152.629 17.5402 152.862 16.79 153.326 16.1111C153.808 15.4323 154.487 14.8964 155.362 14.5034C156.256 14.1104 157.301 13.9139 158.498 13.9139C160.266 13.9139 161.677 14.3605 162.731 15.2537C163.785 16.129 164.366 17.3169 164.473 18.8175H160.882C160.829 18.228 160.579 17.7635 160.132 17.4241C159.703 17.0669 159.123 16.8882 158.39 16.8882C157.712 16.8882 157.185 17.0133 156.809 17.2634C156.452 17.5135 156.274 17.8618 156.274 18.3084C156.274 18.8086 156.524 19.1927 157.024 19.4606C157.524 19.7107 158.301 19.9697 159.355 20.2377C160.427 20.5057 161.311 20.7826 162.008 21.0684C162.705 21.3542 163.303 21.8008 163.803 22.4082C164.321 22.9977 164.589 23.7837 164.607 24.7662C164.607 25.6237 164.366 26.3919 163.884 27.0707C163.419 27.7495 162.74 28.2854 161.847 28.6784C160.972 29.0536 159.945 29.2412 158.766 29.2412ZM177.253 19.3802C177.932 19.4874 178.548 19.7643 179.102 20.2109C179.673 20.6575 180.12 21.2113 180.441 21.8723C180.781 22.5332 180.951 23.2389 180.951 23.9891C180.951 24.9359 180.709 25.7934 180.227 26.5616C179.745 27.3119 179.039 27.9103 178.11 28.3569C177.199 28.7856 176.118 29 174.868 29H167.901V10.3232H174.6C175.868 10.3232 176.949 10.5376 177.842 10.9663C178.735 11.3772 179.405 11.9399 179.852 12.6544C180.299 13.369 180.522 14.1729 180.522 15.0661C180.522 16.1736 180.218 17.0936 179.611 17.8261C179.021 18.5406 178.235 19.0587 177.253 19.3802ZM170.339 18.3888H174.439C175.582 18.3888 176.467 18.1208 177.092 17.5849C177.717 17.049 178.03 16.3076 178.03 15.3608C178.03 14.414 177.717 13.6727 177.092 13.1368C176.467 12.6009 175.565 12.3329 174.386 12.3329H170.339V18.3888ZM174.654 26.9903C175.868 26.9903 176.815 26.7045 177.494 26.1328C178.173 25.5612 178.512 24.7662 178.512 23.748C178.512 22.7119 178.155 21.8991 177.44 21.3095C176.726 20.7022 175.77 20.3985 174.573 20.3985H170.339V26.9903H174.654ZM185.594 11.931C185.129 11.931 184.736 11.7702 184.415 11.4486C184.093 11.1271 183.932 10.7341 183.932 10.2696C183.932 9.80514 184.093 9.41213 184.415 9.09058C184.736 8.76902 185.129 8.60825 185.594 8.60825C186.04 8.60825 186.416 8.76902 186.719 9.09058C187.041 9.41213 187.202 9.80514 187.202 10.2696C187.202 10.7341 187.041 11.1271 186.719 11.4486C186.416 11.7702 186.04 11.931 185.594 11.931ZM186.773 14.3158V29H184.334V14.3158H186.773ZM193.367 9.17096V29H190.929V9.17096H193.367ZM199.961 9.17096V29H197.523V9.17096H199.961ZM209.316 29.2412C208.19 29.2412 207.181 29.0536 206.288 28.6784C205.395 28.2854 204.689 27.7495 204.171 27.0707C203.653 26.374 203.367 25.579 203.313 24.6858H205.832C205.904 25.4183 206.243 26.0167 206.851 26.4812C207.476 26.9456 208.289 27.1779 209.289 27.1779C210.218 27.1779 210.95 26.9724 211.486 26.5616C212.022 26.1507 212.29 25.6326 212.29 25.0074C212.29 24.3643 212.004 23.8909 211.433 23.5872C210.861 23.2657 209.977 22.953 208.78 22.6493C207.69 22.3635 206.797 22.0777 206.1 21.7919C205.421 21.4882 204.832 21.0505 204.332 20.4789C203.849 19.8894 203.608 19.1212 203.608 18.1744C203.608 17.4241 203.832 16.7364 204.278 16.1111C204.725 15.4859 205.359 14.9946 206.181 14.6373C207.002 14.2622 207.94 14.0746 208.994 14.0746C210.62 14.0746 211.933 14.4855 212.933 15.3072C213.934 16.129 214.47 17.2544 214.541 18.6835H212.103C212.049 17.9154 211.736 17.2991 211.165 16.8346C210.611 16.3702 209.861 16.1379 208.914 16.1379C208.039 16.1379 207.342 16.3255 206.824 16.7006C206.306 17.0758 206.047 17.567 206.047 18.1744C206.047 18.6567 206.199 19.0587 206.502 19.3802C206.824 19.6839 207.217 19.934 207.681 20.1305C208.164 20.3092 208.825 20.5146 209.664 20.7468C210.718 21.0327 211.576 21.3185 212.237 21.6043C212.898 21.8723 213.46 22.2831 213.925 22.8369C214.407 23.3907 214.657 24.1142 214.675 25.0074C214.675 25.8113 214.452 26.5348 214.005 27.1779C213.558 27.821 212.924 28.3301 212.103 28.7052C211.299 29.0625 210.37 29.2412 209.316 29.2412Z" fill="white"/>
</svg>
