<svg width="172" height="155" viewBox="0 0 172 155" fill="none" xmlns="http://www.w3.org/2000/svg">
<path d="M58.8896 26.5754L149.752 103.144L127.572 129.618L36.5848 53.1052L58.8896 26.5754Z" fill="#B81422"/>
<path d="M149.752 103.144L127.572 129.618L139.197 139.204L149.752 148.136L149.752 103.144Z" fill="#B81422"/>
<path d="M36.5848 53.1052L58.8896 26.5754L4.93718 26.5754L16.8942 36.5988L36.5848 53.1052Z" fill="#B81422"/>
<path d="M139.197 147.959L149.752 148.136L139.197 139.204L139.197 147.959Z" fill="#B81422"/>
<path d="M4.93718 26.5754L4.93718 36.5988L16.8942 36.5988L4.93718 26.5754Z" fill="#B81422"/>
<path d="M58.8896 26.5754L149.752 102.967L127.447 129.497L36.5848 53.1052L58.8896 26.5754Z" fill="url(#paint0_linear_226_1413)"/>
<path d="M149.752 102.967L127.447 129.497L149.752 147.959L149.752 102.967Z" fill="url(#paint1_linear_226_1413)"/>
<path d="M36.5848 53.1052L58.8896 26.5754L4.93718 26.5754L36.5848 53.1052Z" fill="url(#paint2_linear_226_1413)"/>
<path d="M41.9358 38.8997L40.2793 37.5068L46.0696 30.6209L48.9492 33.0423C49.4628 33.4742 49.8372 33.9479 50.0723 34.4634C50.3074 34.9789 50.3937 35.4954 50.3312 36.0128C50.2742 36.5239 50.0594 37.0009 49.6869 37.4439C49.3198 37.8805 48.8867 38.1739 48.3876 38.3242C47.8886 38.4745 47.365 38.4781 46.8167 38.335C46.2685 38.1918 45.7376 37.9043 45.224 37.4724L43.9046 36.3629L45.0626 34.9857L46.382 36.0952C46.6645 36.3328 46.9513 36.4479 47.2424 36.4406C47.5389 36.4269 47.7952 36.2916 48.0111 36.0348C48.2271 35.7779 48.3137 35.5055 48.2709 35.2175C48.2336 34.923 48.0736 34.657 47.7911 34.4195L46.568 33.391L41.9358 38.8997ZM46.4911 42.7303L44.4879 41.0458L44.8829 35.9033L46.7706 37.4905L46.4911 42.7303ZM52.1961 44.7655L52.1679 46.4023C51.7134 46.4475 51.2245 46.3707 50.7012 46.1718C50.1844 45.9784 49.6948 45.6873 49.2326 45.2985C48.6354 44.7964 48.2072 44.25 47.9477 43.6592C47.6883 43.0683 47.598 42.4718 47.6769 41.8696C47.7623 41.2728 48.0209 40.7176 48.4528 40.204C48.8902 39.6839 49.3923 39.3279 49.9591 39.136C50.5314 38.9377 51.1116 38.8995 51.6997 39.0213C52.2941 39.1485 52.8418 39.4227 53.3426 39.8438C53.8369 40.2595 54.185 40.7385 54.3866 41.2807C54.5937 41.8166 54.6444 42.3689 54.5388 42.9376C54.4385 43.5 54.1752 44.0348 53.7486 44.542L53.7001 44.5998L52.1206 43.2717L52.2664 43.0983C52.4769 42.8479 52.6193 42.6005 52.6934 42.3559C52.7675 42.1113 52.7712 41.8788 52.7046 41.6583C52.6497 41.4368 52.5163 41.237 52.3044 41.0588C52.099 40.8861 51.8701 40.7868 51.6178 40.761C51.3773 40.7341 51.1285 40.7824 50.8712 40.9059C50.614 41.0293 50.3612 41.2387 50.1128 41.534C49.8483 41.8487 49.6879 42.1632 49.6317 42.4776C49.581 42.7857 49.6215 43.0828 49.7535 43.3691C49.8854 43.6554 50.0926 43.9173 50.3751 44.1549C50.8951 44.5922 51.5022 44.7957 52.1961 44.7655ZM53.3032 45.0717L49.0368 41.4842L49.8305 40.5403L53.9331 43.9902L53.7405 44.5517L53.3032 45.0717ZM57.874 49.1618L58.0287 50.9524C57.4773 51.0477 56.9398 51.0287 56.4163 50.8953C55.9045 50.7609 55.4047 50.4886 54.9167 50.0783C54.4031 49.6464 54.0353 49.1453 53.8133 48.575C53.5914 48.0048 53.5263 47.424 53.6181 46.8325C53.7098 46.2411 53.969 45.6918 54.3955 45.1846C54.822 44.6774 55.3187 44.3278 55.8856 44.1359C56.4589 43.9495 57.0487 43.9193 57.655 44.0455C58.2613 44.1717 58.8245 44.4535 59.3445 44.8908C59.8132 45.2849 60.1577 45.7225 60.3779 46.2036C60.6045 46.6901 60.715 47.2104 60.7093 47.7646L58.9186 47.9194C58.9532 47.6306 58.9255 47.3443 58.8355 47.0603C58.7508 46.7699 58.5865 46.5222 58.3425 46.317C58.1178 46.1281 57.867 46.0158 57.59 45.9802C57.3185 45.9382 57.0471 45.9676 56.776 46.0684C56.5113 46.1746 56.2764 46.3497 56.0712 46.5937C55.8661 46.8377 55.7339 47.0992 55.6746 47.3782C55.6218 47.6626 55.6367 47.9381 55.7193 48.2049C55.8073 48.4652 55.9637 48.6898 56.1884 48.8788C56.4388 49.0894 56.7084 49.2119 56.9971 49.2465C57.2977 49.2801 57.59 49.2518 57.874 49.1618ZM60.4016 54.6905C59.8495 54.2262 59.4533 53.7067 59.2131 53.1321C58.9847 52.5564 58.9164 51.9729 59.0082 51.3815C59.1118 50.7891 59.3769 50.2392 59.8034 49.732C60.2353 49.2184 60.7315 48.8629 61.2919 48.6656C61.8588 48.4737 62.4427 48.4441 63.0436 48.5767C63.6563 48.7083 64.2388 49.0063 64.7909 49.4706C65.3431 49.9349 65.7334 50.4549 65.9617 51.0305C66.2019 51.6052 66.2729 52.1855 66.1747 52.7715C66.0829 53.3629 65.8211 53.9154 65.3892 54.429C64.9627 54.9363 64.4633 55.289 63.891 55.4873C63.3305 55.6846 62.7439 55.7175 62.1312 55.5859C61.5303 55.4532 60.9538 55.1548 60.4016 54.6905ZM61.5192 53.3614C61.7439 53.5504 61.9856 53.6605 62.2443 53.6917C62.5031 53.7229 62.7583 53.68 63.0102 53.563C63.2685 53.4513 63.5029 53.2703 63.7134 53.0199C63.924 52.7695 64.0621 52.5075 64.1278 52.2339C64.1999 51.9657 64.1983 51.7069 64.1232 51.4574C64.048 51.2078 63.8981 50.9886 63.6734 50.7996C63.4551 50.6161 63.2133 50.506 62.9482 50.4694C62.6895 50.4381 62.431 50.4783 62.1727 50.59C61.9209 50.707 61.6897 50.8907 61.4791 51.1411C61.2686 51.3915 61.1272 51.6508 61.0552 51.919C60.9895 52.1926 60.9942 52.4542 61.0694 52.7037C61.151 52.9586 61.3009 53.1779 61.5192 53.3614ZM72.0437 64.217L70.4161 62.8484L72.8537 59.9496C73.0912 59.6671 73.2089 59.4098 73.2067 59.1778C73.2099 58.9394 73.1088 58.7338 72.9034 58.561C72.7557 58.4368 72.5826 58.3625 72.384 58.338C72.1908 58.3071 71.9795 58.3432 71.7503 58.4463C71.5275 58.5549 71.3 58.7472 71.0679 59.0233L68.9137 61.5851L67.2861 60.2165L69.7237 57.3176C69.9613 57.0351 70.0789 56.7779 70.0767 56.5458C70.0799 56.3074 69.9788 56.1018 69.7734 55.9291C69.6257 55.8049 69.4526 55.7305 69.254 55.706C69.0608 55.6751 68.8496 55.7112 68.6203 55.8144C68.3975 55.9229 68.17 56.1153 67.9379 56.3913L65.7837 58.9531L64.1561 57.5845L68.2863 52.6728L69.9042 54.0334L69.1025 54.9868L69.0432 54.9205C69.3814 54.7007 69.6956 54.5813 69.9857 54.5622C70.2876 54.542 70.5591 54.584 70.8003 54.6882C71.0469 54.786 71.2601 54.9104 71.4399 55.0616C71.8187 55.3802 72.056 55.7496 72.1519 56.17C72.2478 56.5904 72.1679 57.0438 71.9123 57.5303L71.7967 57.4332C72.1748 57.1921 72.5298 57.0632 72.8617 57.0464C73.2001 57.035 73.5087 57.0917 73.7874 57.2164C74.0779 57.3402 74.3259 57.4884 74.5314 57.6612C75.0835 58.1255 75.3684 58.6665 75.3861 59.2842C75.4038 59.9018 75.1318 60.5445 74.5704 61.2123L72.0437 64.217ZM80.8656 71.6352L79.238 70.2666L81.6756 67.3678C81.9131 67.0853 82.0308 66.828 82.0286 66.596C82.0318 66.3576 81.9307 66.152 81.7252 65.9792C81.5776 65.855 81.4044 65.7807 81.2058 65.7562C81.0127 65.7253 80.8014 65.7614 80.5722 65.8645C80.3494 65.9731 80.1219 66.1654 79.8897 66.4415L77.7356 69.0033L76.108 67.6347L78.5456 64.7358C78.7831 64.4533 78.9008 64.1961 78.8986 63.964C78.9018 63.7256 78.8007 63.52 78.5953 63.3473C78.4476 63.2231 78.2745 63.1487 78.0759 63.1242C77.8827 63.0933 77.6715 63.1294 77.4422 63.2326C77.2194 63.3411 76.9919 63.5335 76.7598 63.8096L74.6056 66.3713L72.978 65.0027L77.1082 60.091L78.7261 61.4516L77.9244 62.405L77.8651 62.3387C78.2033 62.1189 78.5175 61.9995 78.8076 61.9804C79.1095 61.9602 79.381 62.0022 79.6222 62.1064C79.8688 62.2042 80.082 62.3287 80.2618 62.4798C80.6406 62.7984 80.8779 63.1678 80.9738 63.5882C81.0697 64.0086 80.9898 64.462 80.7342 64.9485L80.6186 64.8514C80.9967 64.6103 81.3517 64.4814 81.6836 64.4646C82.022 64.4532 82.3306 64.5099 82.6093 64.6346C82.8998 64.7584 83.1478 64.9066 83.3532 65.0794C83.9054 65.5437 84.1903 66.0847 84.208 66.7024C84.2257 67.32 83.9537 67.9627 83.3923 68.6305L80.8656 71.6352ZM87.4461 74.4067L87.4179 76.0435C86.9634 76.0887 86.4745 76.0119 85.9512 75.813C85.4343 75.6195 84.9448 75.3284 84.4825 74.9397C83.8854 74.4376 83.4571 73.8912 83.1977 73.3003C82.9382 72.7095 82.848 72.113 82.9269 71.5108C83.0122 70.914 83.2709 70.3588 83.7028 69.8451C84.1401 69.3251 84.6422 68.9691 85.2091 68.7772C85.7814 68.5789 86.3616 68.5407 86.9496 68.6625C87.5441 68.7897 88.0917 69.0639 88.5925 69.485C89.0869 69.9007 89.4349 70.3797 89.6366 70.9219C89.8436 71.4577 89.8944 72.01 89.7887 72.5788C89.6885 73.1412 89.4251 73.676 88.9986 74.1832L88.95 74.241L87.3706 72.9129L87.5163 72.7395C87.7269 72.4891 87.8692 72.2416 87.9434 71.9971C88.0175 71.7525 88.0212 71.52 87.9545 71.2995C87.8996 71.078 87.7663 70.8782 87.5544 70.7C87.3489 70.5273 87.1201 70.428 86.8678 70.4021C86.6273 70.3753 86.3784 70.4236 86.1212 70.547C85.8639 70.6705 85.6111 70.8799 85.3628 71.1752C85.0982 71.4898 84.9379 71.8044 84.8817 72.1188C84.8309 72.4268 84.8715 72.724 85.0034 73.0103C85.1353 73.2966 85.3425 73.5585 85.625 73.7961C86.1451 74.2334 86.7521 74.4369 87.4461 74.4067ZM88.5532 74.7129L84.2868 71.1253L85.0804 70.1815L89.1831 73.6314L88.9905 74.1928L88.5532 74.7129ZM92.6847 81.5737L91.0571 80.2051L93.4461 77.3641C93.6998 77.0623 93.8214 76.7809 93.8107 76.5198C93.8001 76.2588 93.6792 76.0311 93.448 75.8367C93.2875 75.7018 93.0956 75.6171 92.8724 75.5828C92.6609 75.5475 92.4347 75.582 92.1936 75.6862C91.9526 75.7903 91.7079 75.9901 91.4595 76.2855L89.3621 78.7798L87.7345 77.4112L91.8646 72.4995L93.4826 73.86L92.1787 75.4106L91.9958 75.2567C92.4294 74.8322 92.8387 74.5736 93.2237 74.4808C93.6086 74.388 93.9576 74.3965 94.2708 74.5064C94.5957 74.6152 94.8674 74.7614 95.0856 74.945C95.6571 75.4255 95.9612 75.9827 95.9982 76.6166C96.0351 77.2504 95.7728 77.9012 95.2113 78.569L92.6847 81.5737ZM99.0248 86.9051L97.4069 85.5446L98.2896 84.4948L98.369 84.3808L99.4947 83.0421C99.7161 82.7789 99.8542 82.5169 99.909 82.2561C99.9693 81.989 99.9532 81.7343 99.8609 81.4922C99.7803 81.2491 99.6309 81.0358 99.4126 80.8523C99.1815 80.6579 98.9333 80.5424 98.6682 80.5058C98.4095 80.4746 98.1542 80.5175 97.9023 80.6345C97.6505 80.7515 97.4193 80.9352 97.2087 81.1856C97.0036 81.4296 96.8655 81.6916 96.7944 81.9716C96.7352 82.2506 96.7495 82.5203 96.8375 82.7806C96.9255 83.0409 97.0883 83.271 97.3259 83.4707C97.512 83.6273 97.7092 83.7383 97.9173 83.8036C98.1307 83.8626 98.3401 83.8742 98.5454 83.8386C98.7626 83.802 98.9574 83.7137 99.1298 83.5738L99.3662 84.0356C99.0585 84.4016 98.7012 84.6766 98.2944 84.8606C97.893 85.0382 97.4722 85.0954 97.0321 85.0322C96.5985 84.9744 96.173 84.7701 95.7556 84.4191C95.3255 84.0574 95.016 83.6108 94.8271 83.0794C94.6447 82.5534 94.6058 82 94.7105 81.4194C94.8215 80.8442 95.0957 80.2966 95.533 79.7765C95.9757 79.25 96.4682 78.886 97.0104 78.6843C97.5644 78.4816 98.1162 78.425 98.6658 78.5144C99.2217 78.6093 99.718 78.8403 100.155 79.2074C100.54 79.5313 100.802 79.8778 100.941 80.2468C101.086 80.6212 101.128 81.0017 101.066 81.388C101.005 81.7744 100.852 82.1449 100.609 82.4993L100.224 82.1754L103.228 78.6024L104.856 79.971L99.0248 86.9051ZM105.654 89.7176L105.626 91.3544C105.171 91.3996 104.683 91.3228 104.159 91.1239C103.642 90.9305 103.153 90.6394 102.691 90.2506C102.093 89.7485 101.665 89.2021 101.406 88.6113C101.146 88.0204 101.056 87.4239 101.135 86.8217C101.22 86.2249 101.479 85.6697 101.911 85.1561C102.348 84.636 102.85 84.28 103.417 84.0881C103.989 83.8898 104.57 83.8516 105.158 83.9734C105.752 84.1006 106.3 84.3748 106.801 84.7959C107.295 85.2116 107.643 85.6906 107.845 86.2328C108.052 86.7687 108.102 87.321 107.997 87.8897C107.897 88.4521 107.633 88.9869 107.207 89.4941L107.158 89.5519L105.579 88.2238L105.724 88.0504C105.935 87.8 106.077 87.5526 106.151 87.308C106.226 87.0634 106.229 86.8309 106.163 86.6104C106.108 86.3889 105.974 86.1891 105.762 86.0109C105.557 85.8382 105.328 85.7389 105.076 85.7131C104.835 85.6862 104.587 85.7345 104.329 85.858C104.072 85.9814 103.819 86.1908 103.571 86.4861C103.306 86.8008 103.146 87.1153 103.09 87.4297C103.039 87.7378 103.08 88.0349 103.211 88.3212C103.343 88.6075 103.551 88.8694 103.833 89.107C104.353 89.5443 104.96 89.7478 105.654 89.7176ZM106.761 90.0238L102.495 86.4363L103.288 85.4924L107.391 88.9423L107.199 89.5038L106.761 90.0238ZM111.345 97.2653L109.727 95.9048L110.61 94.855L110.69 94.741L111.815 93.4023C112.037 93.1391 112.175 92.8771 112.23 92.6163C112.29 92.3491 112.274 92.0945 112.181 91.8524C112.101 91.6093 111.951 91.396 111.733 91.2124C111.502 91.0181 111.254 90.9026 110.989 90.866C110.73 90.8347 110.475 90.8776 110.223 90.9947C109.971 91.1117 109.74 91.2954 109.529 91.5458C109.324 91.7898 109.186 92.0518 109.115 92.3318C109.056 92.6108 109.07 92.8805 109.158 93.1408C109.246 93.4011 109.409 93.6311 109.646 93.8309C109.833 93.9875 110.03 94.0984 110.238 94.1638C110.451 94.2227 110.661 94.2344 110.866 94.1988C111.083 94.1622 111.278 94.0739 111.45 93.934L111.687 94.3958C111.379 94.7618 111.022 95.0367 110.615 95.2208C110.214 95.3983 109.793 95.4555 109.353 95.3924C108.919 95.3346 108.494 95.1302 108.076 94.7793C107.646 94.4176 107.337 93.971 107.148 93.4396C106.965 92.9135 106.926 92.3602 107.031 91.7796C107.142 91.2044 107.416 90.6568 107.854 90.1367C108.296 89.6102 108.789 89.2462 109.331 89.0445C109.885 88.8418 110.437 88.7852 110.986 88.8746C111.542 88.9695 112.039 89.2004 112.475 89.5676C112.86 89.8915 113.123 90.238 113.262 90.607C113.407 90.9814 113.449 91.3618 113.387 91.7482C113.325 92.1346 113.173 92.505 112.929 92.8595L112.544 92.5355L115.549 88.9625L117.176 90.3312L111.345 97.2653ZM117.788 102.946C117.242 102.487 116.817 101.976 116.512 101.413C116.207 100.85 116.02 100.264 115.95 99.6573C115.886 99.0555 115.944 98.458 116.125 97.8649C116.318 97.2707 116.633 96.7136 117.07 96.1935C117.508 95.6735 118 95.2707 118.547 94.9853C119.1 94.7053 119.678 94.5451 120.282 94.5048C120.892 94.4699 121.501 94.5543 122.108 94.7578C122.715 94.9614 123.292 95.2926 123.837 95.7515C124.383 96.2104 124.808 96.7214 125.113 97.2845C125.418 97.8476 125.602 98.43 125.666 99.0318C125.736 99.639 125.678 100.236 125.49 100.824C125.309 101.417 125 101.974 124.563 102.494C124.126 103.014 123.628 103.417 123.069 103.704C122.522 103.989 121.943 104.149 121.333 104.184C120.729 104.225 120.124 104.143 119.517 103.939C118.91 103.736 118.334 103.405 117.788 102.946ZM119.011 101.491C119.409 101.826 119.831 102.028 120.278 102.096C120.736 102.164 121.183 102.107 121.62 101.927C122.069 101.745 122.469 101.446 122.82 101.028C123.171 100.611 123.394 100.169 123.491 99.702C123.594 99.2406 123.57 98.7932 123.42 98.3597C123.281 97.9251 123.012 97.5405 122.614 97.2057C122.223 96.8764 121.798 96.678 121.339 96.6104C120.887 96.5364 120.438 96.5871 119.995 96.7623C119.558 96.943 119.164 97.242 118.813 97.6593C118.462 98.0766 118.233 98.5192 118.124 98.987C118.028 99.4538 118.052 99.9072 118.197 100.347C118.348 100.781 118.619 101.162 119.011 101.491ZM124.862 108.631L123.234 107.262L127.81 101.821C128.647 100.826 129.563 100.747 130.558 101.584L131.781 102.612L130.736 103.854L130.129 103.344C129.95 103.193 129.792 103.126 129.657 103.144C129.527 103.155 129.383 103.254 129.227 103.44L124.862 108.631ZM128.995 105.925L125.518 103.001L126.604 101.711L130.08 104.634L128.995 105.925ZM128.812 111.953L127.184 110.584L131.76 105.143C132.597 104.147 133.513 104.068 134.508 104.905L135.731 105.934L134.686 107.176L134.08 106.666C133.9 106.515 133.742 106.448 133.607 106.466C133.477 106.477 133.333 106.575 133.177 106.762L128.812 111.953ZM132.945 109.247L129.468 106.323L130.554 105.033L134.03 107.956L132.945 109.247ZM136.155 115.365L136.126 117.002C135.672 117.047 135.183 116.97 134.66 116.771C134.143 116.578 133.653 116.287 133.191 115.898C132.594 115.396 132.166 114.849 131.906 114.259C131.647 113.668 131.556 113.071 131.635 112.469C131.721 111.872 131.979 111.317 132.411 110.803C132.849 110.283 133.351 109.927 133.918 109.735C134.49 109.537 135.07 109.499 135.658 109.621C136.253 109.748 136.8 110.022 137.301 110.443C137.795 110.859 138.143 111.338 138.345 111.88C138.552 112.416 138.603 112.968 138.497 113.537C138.397 114.099 138.134 114.634 137.707 115.141L137.659 115.199L136.079 113.871L136.225 113.698C136.435 113.447 136.578 113.2 136.652 112.955C136.726 112.711 136.73 112.478 136.663 112.258C136.608 112.036 136.475 111.836 136.263 111.658C136.057 111.486 135.829 111.386 135.576 111.36C135.336 111.334 135.087 111.382 134.83 111.505C134.572 111.629 134.32 111.838 134.071 112.134C133.807 112.448 133.646 112.763 133.59 113.077C133.539 113.385 133.58 113.682 133.712 113.969C133.844 114.255 134.051 114.517 134.334 114.754C134.854 115.192 135.461 115.395 136.155 115.365ZM137.262 115.671L132.995 112.084L133.789 111.14L137.892 114.59L137.699 115.151L137.262 115.671ZM143.959 116.157L142.744 117.602L142.436 117.342C142.128 117.083 141.828 116.919 141.536 116.849C141.256 116.778 140.976 116.805 140.695 116.93C140.419 117.049 140.138 117.279 139.852 117.619L138.071 119.738L136.443 118.369L140.573 113.458L142.191 114.818L140.831 116.436L140.648 116.282C141.081 115.858 141.491 115.599 141.875 115.506C142.26 115.414 142.609 115.422 142.923 115.532C143.248 115.641 143.519 115.787 143.737 115.971L143.959 116.157Z" fill="white"/>
<defs>
<linearGradient id="paint0_linear_226_1413" x1="59.2924" y1="26.914" x2="36.8557" y2="85.8236" gradientUnits="userSpaceOnUse">
<stop stop-color="#E72939"/>
<stop offset="1" stop-color="#E9593D"/>
</linearGradient>
<linearGradient id="paint1_linear_226_1413" x1="59.2924" y1="26.914" x2="36.8557" y2="85.8236" gradientUnits="userSpaceOnUse">
<stop stop-color="#E72939"/>
<stop offset="1" stop-color="#E9593D"/>
</linearGradient>
<linearGradient id="paint2_linear_226_1413" x1="59.2924" y1="26.914" x2="36.8557" y2="85.8236" gradientUnits="userSpaceOnUse">
<stop stop-color="#E72939"/>
<stop offset="1" stop-color="#E9593D"/>
</linearGradient>
</defs>
</svg>
