<svg width="118" height="46" viewBox="0 0 118 46" fill="none" xmlns="http://www.w3.org/2000/svg">
<g filter="url(#filter0_i_319_919)">
<path d="M34.9548 46H0V37.4419H34.9548V46ZM27.4242 27.751H0.627555V19.8222H27.4242V27.751ZM35.1431 7.5513L28.24 13.907C27.1522 12.187 25.9808 10.9284 24.7257 10.1313C23.5124 9.33424 22.1736 8.9357 20.7093 8.9357C18.9103 8.9357 17.5088 9.544 16.5047 10.7606C15.5006 11.9352 14.9986 13.5714 14.9986 15.6689V41.658H4.58115V15.7948C4.58115 12.6484 5.22963 9.90059 6.52658 7.5513C7.82352 5.16005 9.68527 3.31418 12.1118 2.01368C14.5384 0.671227 17.4042 0 20.7093 0C23.6798 0 26.4201 0.65025 28.9303 1.95075C31.4405 3.25125 33.5115 5.1181 35.1431 7.5513Z" fill="#E72939"/>
<path d="M76.3833 46H41.4285V37.4419H76.3833V46ZM68.8526 27.751H42.056V19.8222H68.8526V27.751ZM76.5715 7.5513L69.6684 13.907C68.5807 12.187 67.4092 10.9284 66.1541 10.1313C64.9409 9.33424 63.6021 8.9357 62.1378 8.9357C60.3388 8.9357 58.9372 9.544 57.9332 10.7606C56.9291 11.9352 56.427 13.5714 56.427 15.6689V41.658H46.0096V15.7948C46.0096 12.6484 46.6581 9.90059 47.955 7.5513C49.252 5.16005 51.1137 3.31418 53.5403 2.01368C55.9668 0.671227 58.8327 0 62.1378 0C65.1082 0 67.8485 0.65025 70.3587 1.95075C72.869 3.25125 74.9399 5.1181 76.5715 7.5513Z" fill="#E72939"/>
<path d="M117.812 46H82.8569V37.4419H117.812V46ZM110.281 27.751H83.4845V19.8222H110.281V27.751ZM118 7.5513L111.097 13.907C110.009 12.187 108.838 10.9284 107.583 10.1313C106.369 9.33424 105.031 8.9357 103.566 8.9357C101.767 8.9357 100.366 9.544 99.3616 10.7606C98.3575 11.9352 97.8555 13.5714 97.8555 15.6689V41.658H87.4381V15.7948C87.4381 12.6484 88.0865 9.90059 89.3835 7.5513C90.6804 5.16005 92.5422 3.31418 94.9687 2.01368C97.3953 0.671227 100.261 0 103.566 0C106.537 0 109.277 0.65025 111.787 1.95075C114.297 3.25125 116.368 5.1181 118 7.5513Z" fill="#E72939"/>
</g>
<defs>
<filter id="filter0_i_319_919" x="0" y="0" width="120" height="46" filterUnits="userSpaceOnUse" color-interpolation-filters="sRGB">
<feFlood flood-opacity="0" result="BackgroundImageFix"/>
<feBlend mode="normal" in="SourceGraphic" in2="BackgroundImageFix" result="shape"/>
<feColorMatrix in="SourceAlpha" type="matrix" values="0 0 0 0 0 0 0 0 0 0 0 0 0 0 0 0 0 0 127 0" result="hardAlpha"/>
<feOffset dx="2"/>
<feGaussianBlur stdDeviation="1"/>
<feComposite in2="hardAlpha" operator="arithmetic" k2="-1" k3="1"/>
<feColorMatrix type="matrix" values="0 0 0 0 0 0 0 0 0 0 0 0 0 0 0 0 0 0 0.25 0"/>
<feBlend mode="normal" in2="shape" result="effect1_innerShadow_319_919"/>
</filter>
</defs>
</svg>
