<?xml version="1.0" encoding="UTF-8"?><svg xmlns="http://www.w3.org/2000/svg" viewBox="0 0 2812.24 705.36"><defs><style>.d{fill:#ed1c24;}.e{fill:#f33;}.f{fill:#544e50;}</style></defs><g id="a"/><g id="b"><g id="c"><g><g><path class="e" d="M1326.46,1.82l-125.6,45.93c-9.89,3.62-11.29,17.03-2.35,22.61l208.48,130.11c4.94,3.08,7.14,9.15,5.32,14.68l-76.76,233.61c-3.29,10.01,6.38,19.41,16.29,15.85l125.31-44.96c8.62-3.09,15.35-9.95,18.28-18.63l82.45-244.41c1.87-5.56-.31-11.67-5.29-14.77L1352.62,4.55c-7.83-4.89-17.49-5.9-26.16-2.72Z"/><path class="d" d="M1577.94,148.74c-.89-2.79-2.73-5.26-5.36-6.9L1352.62,4.55c-7.83-4.89-17.49-5.9-26.16-2.72l-125.6,45.93c-9.89,3.62-11.29,17.03-2.35,22.61l208.48,130.11c2.47,1.54,4.26,3.83,5.2,6.42"/></g><g><path class="e" d="M1343.99,703.65l126.1-44.55c9.93-3.51,11.47-16.91,2.6-22.58l-207.05-132.37c-4.91-3.14-7.04-9.22-5.16-14.74l79.3-232.76c3.4-9.97-6.16-19.48-16.12-16.03l-125.79,43.59c-8.65,3-15.46,9.79-18.48,18.43l-85.1,243.49c-1.93,5.53,.19,11.67,5.13,14.83l218.46,139.69c7.78,4.98,17.42,6.09,26.13,3.01Z"/><path class="d" d="M1094.12,554c.86,2.8,2.68,5.29,5.28,6.95l218.46,139.69c7.78,4.98,17.42,6.09,26.13,3.01l126.1-44.55c9.93-3.51,11.47-16.91,2.6-22.58l-207.05-132.37c-2.45-1.57-4.21-3.87-5.13-6.48"/></g><g><path class="f" d="M71,439.67c-9.92,0-20.42-1.04-31.49-3.12-11.07-2.07-21-5.65-29.76-10.73-4.85-2.77-7.85-6.17-9-10.21-1.16-4.03-.99-7.84,.52-11.42,1.5-3.57,4.03-6.17,7.61-7.78,3.57-1.61,7.79-1.27,12.63,1.04,9.22,4.38,17.87,7.44,25.95,9.17,8.07,1.73,16.03,2.59,23.88,2.59,11.07,0,19.32-1.9,24.74-5.71,5.42-3.81,8.13-8.82,8.13-15.05,0-9.69-7.15-15.92-21.45-18.69l-34.6-6.57c-29.3-5.54-43.95-20.76-43.95-45.68,0-11.07,3.06-20.64,9.17-28.72,6.11-8.07,14.59-14.3,25.43-18.69,10.84-4.38,23.3-6.58,37.37-6.58,20.3,0,38.41,4.5,54.33,13.5,4.38,2.31,6.97,5.48,7.78,9.52,.81,4.04,.35,7.85-1.38,11.42-1.73,3.58-4.44,6.12-8.13,7.61-3.69,1.5-7.96,1.1-12.8-1.21-7.16-3.69-14.01-6.34-20.59-7.96-6.58-1.61-12.86-2.42-18.86-2.42-11.31,0-19.67,1.96-25.09,5.88-5.42,3.93-8.13,9.12-8.13,15.57,0,10.15,6.57,16.38,19.72,18.68l34.6,6.58c14.99,2.77,26.35,7.85,34.09,15.23,7.73,7.39,11.59,17.3,11.59,29.76,0,16.84-6.58,30.05-19.72,39.62-13.15,9.58-30.69,14.36-52.6,14.36Z"/><path class="f" d="M239.86,438.98c-12,0-20.3-6-24.92-17.99l-50.18-128.03c-3-8.07-2.83-14.88,.52-20.42,3.34-5.54,9.28-8.31,17.82-8.31,5.07,0,9.22,1.21,12.46,3.64,3.23,2.42,6,6.98,8.31,13.67l38.07,104.16,39.1-106.92c3.69-9.69,10.26-14.54,19.72-14.54s16.27,4.85,19.72,14.54l39.1,107.96,38.41-106.23c2.3-6.23,5.24-10.49,8.82-12.8,3.57-2.3,7.55-3.46,11.94-3.46,8.31,0,13.72,2.94,16.26,8.82,2.54,5.88,2.3,12.52-.69,19.9l-49.83,128.03c-4.84,12-13.15,17.99-24.91,17.99s-20.54-6-24.92-17.99l-35.3-93.78-34.6,93.43c-4.39,12.23-12.69,18.34-24.92,18.34Z"/><path class="f" d="M491.09,232.4c-8.08,0-14.36-2.02-18.86-6.05-4.5-4.03-6.75-9.63-6.75-16.78s2.25-13.03,6.75-16.96c4.5-3.92,10.78-5.88,18.86-5.88,17.07,0,25.61,7.61,25.61,22.84s-8.54,22.84-25.61,22.84Zm0,206.24c-6.92,0-12.23-2.08-15.92-6.23-3.69-4.15-5.54-9.92-5.54-17.3v-127c0-15.69,7.15-23.53,21.45-23.53s21.8,7.85,21.8,23.53v127c0,7.39-1.85,13.15-5.54,17.3-3.69,4.15-9.11,6.23-16.26,6.23Z"/><path class="f" d="M635.38,439.67c-44.76,0-67.13-22.15-67.13-66.44v-73.71h-17.99c-11.54,0-17.3-5.42-17.3-16.27s5.76-16.26,17.3-16.26h17.99v-31.49c0-14.54,7.27-21.8,21.8-21.8s21.45,7.27,21.45,21.8v31.49h36.68c11.53,0,17.3,5.42,17.3,16.26s-5.77,16.27-17.3,16.27h-36.68v71.28c0,11.07,2.42,19.38,7.27,24.92,4.84,5.54,12.68,8.31,23.53,8.31,3.92,0,7.38-.35,10.38-1.04,2.99-.69,5.65-1.15,7.96-1.38,2.77-.23,5.07,.64,6.92,2.6,1.84,1.96,2.77,5.94,2.77,11.94,0,4.62-.75,8.71-2.25,12.28-1.5,3.58-4.21,6.06-8.13,7.44-3,.92-6.92,1.78-11.76,2.59-4.85,.81-9.12,1.21-12.8,1.21Z"/><path class="f" d="M767.22,439.67c-17.77,0-33.22-3.64-46.37-10.9-13.15-7.27-23.31-17.59-30.45-30.97-7.15-13.38-10.73-29.07-10.73-47.06s3.57-33.51,10.73-46.54c7.15-13.03,17.3-23.07,30.45-30.11,13.15-7.04,28.6-10.56,46.37-10.56,7.61,0,15.86,1.04,24.74,3.12,8.88,2.07,17.24,5.54,25.09,10.38,4.61,2.77,7.32,6.35,8.13,10.73,.8,4.39,.23,8.42-1.73,12.11-1.96,3.69-4.84,6.35-8.65,7.96-3.81,1.62-8.13,1.04-12.98-1.73-10.61-6-20.88-9-30.8-9-15,0-26.59,4.67-34.78,14.01-8.19,9.34-12.28,22.66-12.28,39.97s4.09,30.51,12.28,40.31c8.19,9.81,19.78,14.71,34.78,14.71,9.91,0,20.18-2.88,30.8-8.65,4.85-2.77,9.11-3.34,12.8-1.73,3.69,1.62,6.34,4.33,7.96,8.13,1.61,3.81,1.96,7.85,1.04,12.11-.92,4.27-3.58,7.79-7.96,10.55-7.61,4.62-15.69,7.96-24.22,10.03-8.54,2.08-16.61,3.12-24.22,3.12Z"/><path class="f" d="M873.8,438.98c-14.31,0-21.45-7.38-21.45-22.15V211.29c0-14.54,7.15-21.8,21.45-21.8s21.8,7.27,21.8,21.8v80.28c5.76-9.22,13.49-16.2,23.18-20.94,9.69-4.72,20.42-7.09,32.18-7.09,39.91,0,59.86,23.19,59.86,69.55v83.74c0,14.77-7.15,22.15-21.45,22.15s-21.8-7.38-21.8-22.15v-81.66c0-13.15-2.48-22.72-7.44-28.72-4.96-6-12.63-9-23.01-9-12.69,0-22.78,3.98-30.28,11.94-7.5,7.96-11.25,18.51-11.25,31.66v75.78c0,14.77-7.27,22.15-21.8,22.15Z"/><path class="f" d="M1712.55,439.67c-19.15,0-35.64-3.57-49.49-10.73-13.84-7.15-24.51-17.3-32.01-30.45-7.5-13.15-11.25-28.72-11.25-46.71s3.64-32.88,10.9-46.02c7.27-13.15,17.3-23.47,30.11-30.97,12.8-7.5,27.39-11.25,43.77-11.25,23.99,0,42.96,7.61,56.92,22.84,13.95,15.23,20.94,35.99,20.94,62.29,0,8.54-5.54,12.8-16.61,12.8h-104.5c3.23,30.22,20.53,45.33,51.9,45.33,6,0,12.75-.75,20.25-2.25,7.49-1.5,14.59-4.09,21.28-7.79,6-3.46,11.07-4.55,15.23-3.29,4.15,1.27,7.09,3.75,8.82,7.44,1.73,3.69,1.96,7.79,.69,12.29-1.27,4.5-4.56,8.36-9.86,11.59-8.08,5.08-17.36,8.82-27.86,11.25-10.5,2.42-20.25,3.64-29.24,3.64Zm-6.23-146.72c-12.69,0-22.96,3.93-30.8,11.77-7.85,7.85-12.58,18.46-14.19,31.84h85.12c-.92-14.07-4.79-24.86-11.59-32.35-6.81-7.5-16.32-11.25-28.55-11.25Z"/><path class="f" d="M1827.43,437.94c-5.08,0-9.29-1.44-12.63-4.33-3.35-2.88-5.08-6.63-5.19-11.25-.12-4.61,1.78-9.46,5.71-14.53l47.75-58.83-44.29-54.67c-4.15-5.07-6.12-9.91-5.88-14.53,.23-4.61,2.02-8.36,5.36-11.25,3.34-2.88,7.55-4.33,12.63-4.33s9.74,.92,13.32,2.77c3.57,1.85,6.86,4.73,9.86,8.65l33.91,43.6,34.26-43.6c3.23-3.92,6.58-6.8,10.03-8.65,3.46-1.84,7.73-2.77,12.8-2.77s9.57,1.5,12.8,4.5c3.23,3,4.9,6.81,5.02,11.42,.11,4.62-1.9,9.46-6.05,14.53l-44.29,54.33,48.1,58.83c4.15,4.84,6.11,9.57,5.88,14.19-.23,4.62-2.02,8.42-5.36,11.42-3.35,3-7.67,4.5-12.98,4.5-9.23,0-16.84-3.81-22.84-11.42l-37.72-47.41-37.37,47.41c-3,3.69-6.23,6.52-9.69,8.48-3.46,1.96-7.85,2.94-13.15,2.94Z"/><path class="f" d="M2026.06,501.27c-14.31,0-21.45-7.27-21.45-21.8v-193.44c0-14.53,7.03-21.8,21.11-21.8s21.46,7.27,21.46,21.8v7.27c4.84-9,12.11-16.2,21.8-21.63,9.69-5.42,20.76-8.13,33.22-8.13,14.76,0,27.74,3.58,38.93,10.73,11.19,7.15,19.9,17.25,26.13,30.28,6.23,13.04,9.34,28.67,9.34,46.89s-3.11,33.63-9.34,46.89c-6.23,13.27-14.88,23.48-25.95,30.62-11.07,7.16-24.11,10.73-39.1,10.73-12,0-22.78-2.6-32.35-7.79-9.57-5.19-16.9-12.17-21.97-20.94v68.51c0,14.53-7.27,21.8-21.8,21.8Zm64.02-94.47c12.92,0,23.3-4.67,31.14-14.01,7.84-9.34,11.77-23.12,11.77-41.35s-3.93-32.23-11.77-41.35c-7.85-9.11-18.22-13.67-31.14-13.67s-23.3,4.56-31.14,13.67c-7.85,9.12-11.76,22.9-11.76,41.35s3.92,32.01,11.76,41.35c7.84,9.34,18.22,14.01,31.14,14.01Z"/><path class="f" d="M2295.62,439.67c-19.15,0-35.64-3.57-49.49-10.73-13.84-7.15-24.51-17.3-32.01-30.45-7.5-13.15-11.25-28.72-11.25-46.71s3.64-32.88,10.9-46.02c7.27-13.15,17.3-23.47,30.11-30.97,12.8-7.5,27.39-11.25,43.77-11.25,23.99,0,42.96,7.61,56.92,22.84,13.95,15.23,20.94,35.99,20.94,62.29,0,8.54-5.54,12.8-16.61,12.8h-104.5c3.23,30.22,20.53,45.33,51.9,45.33,6,0,12.75-.75,20.25-2.25,7.49-1.5,14.59-4.09,21.28-7.79,6-3.46,11.07-4.55,15.23-3.29,4.15,1.27,7.09,3.75,8.82,7.44,1.73,3.69,1.96,7.79,.69,12.29-1.27,4.5-4.56,8.36-9.86,11.59-8.08,5.08-17.36,8.82-27.86,11.25-10.5,2.42-20.25,3.64-29.24,3.64Zm-6.23-146.72c-12.69,0-22.96,3.93-30.8,11.77-7.85,7.85-12.58,18.46-14.19,31.84h85.12c-.92-14.07-4.79-24.86-11.59-32.35-6.81-7.5-16.32-11.25-28.55-11.25Z"/><path class="f" d="M2421.92,438.98c-14.77,0-22.15-7.38-22.15-22.15v-130.8c0-14.53,7.03-21.8,21.11-21.8s21.11,7.27,21.11,21.8v10.73c8.31-19.84,26.07-30.91,53.29-33.22,9.92-1.15,15.45,4.5,16.61,16.96,1.15,12.23-4.84,19.03-17.99,20.42l-7.61,.69c-28.38,2.77-42.56,17.3-42.56,43.6v71.63c0,14.77-7.27,22.15-21.8,22.15Z"/><path class="f" d="M2622.62,439.67c-44.76,0-67.13-22.15-67.13-66.44v-73.71h-17.99c-11.54,0-17.3-5.42-17.3-16.27s5.76-16.26,17.3-16.26h17.99v-31.49c0-14.54,7.27-21.8,21.8-21.8s21.45,7.27,21.45,21.8v31.49h36.68c11.53,0,17.3,5.42,17.3,16.26s-5.77,16.27-17.3,16.27h-36.68v71.28c0,11.07,2.42,19.38,7.27,24.92,4.84,5.54,12.68,8.31,23.53,8.31,3.92,0,7.38-.35,10.38-1.04,2.99-.69,5.65-1.15,7.96-1.38,2.77-.23,5.07,.64,6.92,2.6,1.84,1.96,2.77,5.94,2.77,11.94,0,4.62-.75,8.71-2.25,12.28-1.5,3.58-4.21,6.06-8.13,7.44-3,.92-6.92,1.78-11.76,2.59-4.85,.81-9.12,1.21-12.8,1.21Z"/><path class="f" d="M2739.92,439.67c-9.92,0-20.42-1.04-31.49-3.12-11.07-2.07-21-5.65-29.76-10.73-4.85-2.77-7.85-6.17-9-10.21-1.16-4.03-.99-7.84,.52-11.42,1.5-3.57,4.03-6.17,7.61-7.78,3.57-1.61,7.79-1.27,12.63,1.04,9.22,4.38,17.87,7.44,25.95,9.17,8.07,1.73,16.03,2.59,23.88,2.59,11.07,0,19.32-1.9,24.74-5.71,5.42-3.81,8.13-8.82,8.13-15.05,0-9.69-7.15-15.92-21.45-18.69l-34.6-6.57c-29.3-5.54-43.95-20.76-43.95-45.68,0-11.07,3.06-20.64,9.17-28.72,6.11-8.07,14.59-14.3,25.43-18.69,10.84-4.38,23.3-6.58,37.37-6.58,20.3,0,38.41,4.5,54.33,13.5,4.38,2.31,6.97,5.48,7.78,9.52,.81,4.04,.35,7.85-1.38,11.42-1.73,3.58-4.44,6.12-8.13,7.61-3.69,1.5-7.96,1.1-12.8-1.21-7.16-3.69-14.01-6.34-20.59-7.96-6.58-1.61-12.86-2.42-18.86-2.42-11.31,0-19.67,1.96-25.09,5.88-5.42,3.93-8.13,9.12-8.13,15.57,0,10.15,6.57,16.38,19.72,18.68l34.6,6.58c14.99,2.77,26.35,7.85,34.09,15.23,7.73,7.39,11.59,17.3,11.59,29.76,0,16.84-6.58,30.05-19.72,39.62-13.15,9.58-30.69,14.36-52.6,14.36Z"/></g></g></g></g></svg>