<svg width="46" height="46" viewBox="0 0 46 46" fill="none" xmlns="http://www.w3.org/2000/svg">
<path d="M46 42.0192L32.2796 28.2966C34.4907 25.2581 35.6802 21.5961 35.6765 17.8383C35.6765 8.00245 27.6741 0 17.8383 0C8.00245 0 0 8.00245 0 17.8383C0 27.6741 8.00245 35.6765 17.8383 35.6765C21.5961 35.6802 25.2581 34.4907 28.2966 32.2796L42.0192 46L46 42.0192ZM17.8383 30.0426C15.4242 30.0429 13.0642 29.3272 11.0569 27.9861C9.0495 26.645 7.48492 24.7388 6.56098 22.5085C5.63704 20.2782 5.39524 17.824 5.86615 15.4563C6.33707 13.0885 7.49955 10.9136 9.20658 9.20658C10.9136 7.49955 13.0885 6.33707 15.4563 5.86615C17.824 5.39524 20.2782 5.63704 22.5085 6.56098C24.7388 7.48492 26.645 9.0495 27.9861 11.0569C29.3272 13.0642 30.0429 15.4242 30.0426 17.8383C30.0388 21.0739 28.7518 24.1759 26.4639 26.4639C24.1759 28.7518 21.0739 30.0388 17.8383 30.0426Z" fill="white"/>
</svg>
