<svg width="1803" height="517" viewBox="0 0 1803 517" fill="none" xmlns="http://www.w3.org/2000/svg">
<path d="M272.551 339.284L388.209 516.797H269.129L194.26 404.962L119.324 516.797H0.445068L117.982 339.284L0.445068 162.979H92.2204C106.98 162.979 125.63 172.907 133.949 185.184L194.394 274.612L254.706 185.184C263.024 172.907 281.742 162.979 296.501 162.979H388.276L272.618 339.284H272.551Z" fill="#00A4C4"/>
<path d="M761.015 144.268C695.27 144.268 643.277 155.203 606.312 171.64V516.803H713.048V238.19C725.526 234.098 737.065 230.676 758.332 230.676C801.402 230.676 813.008 256.035 813.008 281.998V516.803H919.811V261.335C919.811 194.248 878.015 144.268 760.948 144.268" fill="#00A4C4"/>
<path d="M490.786 0.562886C490.115 0.562886 489.377 0.495798 488.706 0.428711H488.237C455.431 0.428711 434.03 10.0893 434.03 10.0893V516.799H543.718V41.5532C543.718 15.4563 526.745 1.70337 490.719 0.562886" fill="#00A4C4"/>
<path d="M1029.03 0.428711H1023.08V516.799H1029.03V0.428711Z" fill="#00A4C4"/>
<path d="M1767.77 419.265C1748.47 419.265 1734.1 430.043 1734.1 444.947C1734.1 458.054 1742.09 466.704 1762.25 472.026C1780.28 476.817 1784.93 480.343 1784.93 489.525C1784.93 498.706 1777.15 503.696 1764.91 503.696C1754.79 503.696 1746.14 500.303 1738.69 494.648L1730.04 504.561C1738.16 511.614 1749.54 516.804 1765.31 516.804C1784.27 516.804 1802.17 507.955 1802.17 488.46C1802.17 472.159 1790.86 464.375 1771.16 459.385C1756.12 455.459 1751.13 451.933 1751.13 444.348C1751.13 436.763 1757.65 432.106 1768.3 432.106C1776.95 432.106 1784.2 434.767 1792.59 440.09L1799.5 429.844C1790.66 423.124 1780.94 419.198 1767.83 419.198M1685.07 419.198C1665.77 419.198 1651.4 429.977 1651.4 444.88C1651.4 457.988 1659.38 466.637 1679.54 471.96C1697.57 476.75 1702.23 480.277 1702.23 489.458C1702.23 498.64 1694.45 503.63 1682.21 503.63C1672.09 503.63 1663.44 500.237 1655.99 494.581L1647.34 504.495C1655.46 511.547 1666.84 516.737 1682.6 516.737C1701.57 516.737 1719.46 507.888 1719.46 488.394C1719.46 472.093 1708.15 464.308 1688.46 459.318C1673.42 455.393 1668.43 451.866 1668.43 444.282C1668.43 436.697 1675.02 432.039 1685.6 432.039C1694.25 432.039 1701.5 434.701 1709.88 440.023L1716.8 429.777C1707.95 423.057 1698.24 419.132 1685.13 419.132M1619.4 461.447H1575.68C1576.95 440.755 1585.07 432.039 1597.44 432.039C1612.14 432.039 1619.4 442.152 1619.4 460.383V461.447ZM1635.5 465.173C1635.5 436.63 1622.19 419.132 1597.04 419.132C1571.89 419.132 1558.25 439.824 1558.25 468.899C1558.25 497.975 1573.49 516.737 1599.5 516.737C1612.41 516.737 1622.86 512.346 1632.11 505.027L1625.05 495.313C1616.94 500.969 1610.02 503.43 1600.77 503.43C1587.33 503.43 1577.21 495.114 1575.62 473.49H1635.1C1635.3 471.361 1635.43 468.367 1635.43 465.173M1510.21 419.132C1497.97 419.132 1488.06 425.519 1481.67 435.033L1480.27 421.261H1466.3V514.608H1482.6V448.407C1488.79 438.493 1495.91 431.973 1506.36 431.973C1515.4 431.973 1521.06 436.031 1521.06 450.004V514.608H1537.36V447.675C1537.36 429.977 1527.45 419.132 1510.28 419.132M1439.76 421.261H1423.45V514.608H1439.76V421.261ZM1431.44 376.483C1424.72 376.483 1420.13 381.274 1420.13 387.661C1420.13 394.048 1424.72 398.639 1431.44 398.639C1438.16 398.639 1442.95 393.849 1442.95 387.661C1442.95 381.473 1438.36 376.483 1431.44 376.483ZM1370.69 419.132C1351.4 419.132 1337.03 429.91 1337.03 444.814C1337.03 457.921 1345.01 466.57 1365.17 471.893C1383.2 476.684 1387.86 480.21 1387.86 489.392C1387.86 498.573 1380.07 503.563 1367.83 503.563C1357.72 503.563 1349.07 500.17 1341.62 494.515L1332.97 504.428C1341.09 511.481 1352.46 516.671 1368.23 516.671C1387.19 516.671 1405.09 507.822 1405.09 488.327C1405.09 472.026 1393.78 464.242 1374.09 459.252C1359.05 455.326 1354.06 451.8 1354.06 444.215C1354.06 436.63 1360.65 431.973 1371.23 431.973C1379.87 431.973 1387.13 434.634 1395.51 439.957L1402.43 429.711C1393.58 422.991 1383.87 419.065 1370.76 419.065M1316 421.194H1299.7V487.795C1294.05 497.176 1286.46 503.896 1276.35 503.896C1266.23 503.896 1262.04 499.106 1262.04 486.398V421.261H1245.74V488.194C1245.74 506.424 1255.46 516.737 1271.76 516.737C1285 516.737 1293.71 511.414 1300.77 500.104L1302.03 514.608H1316V421.261V421.194ZM1183.93 503.696C1175.62 503.696 1168.16 498.573 1163.37 491.122V446.477C1168.16 439.025 1174.88 431.973 1185.13 431.973C1198.24 431.973 1206.89 441.154 1206.89 467.768C1206.89 494.382 1197.5 503.696 1183.87 503.696M1189.72 419.065C1178.41 419.065 1169.69 424.188 1163.31 432.904V381.74L1147.01 383.669V514.542H1161.31L1162.91 504.295C1169.29 512.08 1177.41 516.671 1187.72 516.671C1210.41 516.671 1224.38 497.043 1224.38 467.768C1224.38 436.63 1210.74 419.065 1189.65 419.065" fill="#00A4C4"/>
<path d="M1527.65 326.191C1532.44 326.191 1537.03 324.927 1540.56 322.997L1536.3 311.686C1534.5 312.418 1532.57 312.751 1530.24 312.751C1525.98 312.751 1524.39 310.289 1524.39 305.299V191.26L1508.09 193.189V305.632C1508.09 318.939 1515.67 326.191 1527.58 326.191M1480.54 326.191C1485.33 326.191 1489.92 324.927 1493.45 322.997L1489.19 311.686C1487.39 312.418 1485.47 312.751 1483.2 312.751C1478.94 312.751 1477.35 310.289 1477.35 305.299V191.26L1461.05 193.189V305.632C1461.05 318.939 1468.63 326.191 1480.54 326.191ZM1396.44 313.949C1385.8 313.949 1380.34 308.094 1380.34 297.115C1380.34 284.407 1388.99 278.02 1406.22 278.02H1418.47V299.444C1413.14 309.158 1406.09 313.949 1396.51 313.949M1434.77 302.239V259.59C1434.77 240.096 1424.52 228.585 1402.03 228.585C1391.59 228.585 1381.34 230.714 1369.83 234.973L1373.89 246.816C1383.47 243.622 1392.12 241.892 1399.04 241.892C1411.95 241.892 1418.53 246.816 1418.53 260.322V267.242H1404.16C1378.15 267.242 1363.11 278.02 1363.11 298.047C1363.11 314.68 1374.29 326.191 1392.85 326.191C1404.16 326.191 1414.07 321.933 1420.66 312.219C1423.52 321.4 1429.51 325.126 1438.89 326.191L1442.62 314.88C1437.83 313.084 1434.83 310.422 1434.83 302.305M1319.46 228.652C1306.89 228.652 1298.37 235.372 1291.65 245.485C1288.13 234.84 1279.61 228.652 1268.1 228.652C1255.86 228.652 1247.41 235.039 1241.15 244.42L1239.75 230.781H1225.78V324.128H1242.08V257.927C1248.27 248.013 1253.93 241.493 1264.04 241.493C1271.16 241.493 1277.15 245.552 1277.15 259.524V324.128H1293.45V257.927C1299.84 248.013 1305.29 241.493 1315.4 241.493C1322.52 241.493 1328.51 245.552 1328.51 259.524V324.128H1344.81V257.195C1344.81 239.697 1334.7 228.652 1319.46 228.652ZM1172.82 228.652C1153.53 228.652 1139.16 239.43 1139.16 254.334C1139.16 267.441 1147.14 276.091 1167.3 281.413C1185.33 286.204 1189.99 289.73 1189.99 298.912C1189.99 308.094 1182.2 313.084 1169.96 313.084C1159.85 313.084 1151.2 309.69 1143.75 304.035L1135.1 313.949C1143.21 321.001 1154.59 326.191 1170.36 326.191C1189.32 326.191 1207.22 317.342 1207.22 297.847C1207.22 281.546 1195.91 273.762 1176.21 268.772C1161.18 264.846 1156.19 261.32 1156.19 253.735C1156.19 246.15 1162.78 241.493 1173.35 241.493C1182 241.493 1189.26 244.154 1197.64 249.477L1204.56 239.231C1195.71 232.511 1186 228.585 1172.89 228.585" fill="#00A4C4"/>
<path d="M1341.22 37.9539C1329.91 37.9539 1321.19 45.0065 1316.27 59.0452L1314.67 40.083H1300.7V133.43H1317V80.0699C1320.86 62.1723 1327.65 53.8555 1339.29 53.8555C1342.68 53.8555 1344.61 54.1882 1347.41 54.9201L1350.4 38.9519C1347.54 38.22 1344.21 37.8874 1341.22 37.8874M1237.49 50.9946C1252.86 50.9946 1261.38 62.3054 1261.38 86.5903C1261.38 110.875 1252.86 122.386 1237.29 122.386C1221.72 122.386 1213.21 111.075 1213.21 86.7899C1213.21 62.505 1221.86 50.9946 1237.49 50.9946ZM1237.49 37.8874C1210.94 37.8874 1195.71 57.9141 1195.71 86.7233C1195.71 115.533 1210.75 135.426 1237.29 135.426C1263.84 135.426 1278.94 115.4 1278.94 86.5237C1278.94 57.648 1264.04 37.8208 1237.49 37.8208M1179.01 13.5359C1183.8 13.5359 1189.25 14.4009 1195.31 17.0622L1200.43 5.21916C1192.98 2.02553 1186.99 0.428711 1178.14 0.428711C1159.18 0.428711 1148.94 11.6064 1148.94 27.1754V39.9499H1132.3V52.5249H1148.94V133.297H1165.24V52.5914H1186.13L1187.92 40.0165H1165.24V27.1089C1165.24 18.0602 1168.76 13.669 1179.08 13.669" fill="#00A4C4"/>
</svg>
